<?xml version="1.0" encoding="utf-8"?>
<!-- Generator: Adobe Illustrator 24.0.0, SVG Export Plug-In . SVG Version: 6.00 Build 0)  -->
<svg version="1.1" id="Calque_1" xmlns="http://www.w3.org/2000/svg" xmlns:xlink="http://www.w3.org/1999/xlink" x="0px" y="0px"
	 viewBox="0 0 419.87 213.73" style="enable-background:new 0 0 419.87 213.73;" xml:space="preserve">
<style type="text/css">
	.st0{fill:#ffffff;}
	.st1{fill:#1D1E1B;}
	.st2{fill:#FFFFFF;}
</style>
<g>
	<path class="st0" d="M91.98,186.63c-0.91-5.7-1.57-11.46-2.82-17.08c-0.91-4.06-2.48-7.98-3.98-11.88
		c-3.8-9.85-10.74-17.28-18.48-24.19c-7.65-6.83-15.14-13.86-20.81-22.56c-4.5-6.9-6.78-14.53-6.77-22.62
		c0.02-9.7,3.34-18.45,10.49-25.18c5.8-5.46,12.87-8.45,21.05-8.72c8.24-0.27,15.64,2.25,22.67,6.13c1.99,1.1,2.79,0.76,3.74-1.23
		c2.69-5.65,6.42-10.6,10.93-14.92c3.27-3.14,7.01-5.68,11.35-7.02c3.94-1.21,7.95-1.56,11.27,1.74c3.07,3.05,3.31,8.15,0.55,12.64
		c-2.51,4.08-6.27,6.69-10.46,8.8c-3.71,1.87-7.5,3.39-11.75,3.18c-0.71-0.04-1.4-0.59-2.1-0.9c0.54-0.53,1-1.3,1.65-1.54
		c2.27-0.85,4.61-1.5,6.91-2.25c4.21-1.36,7.86-3.65,10.35-7.32c0.91-1.34,1.26-3.26,1.34-4.95c0.13-2.64-2.25-4.17-4.93-4.08
		c-5.18,0.18-9.14,2.9-12.74,6.05C105.2,52.46,101.59,56.8,99.1,62c-0.63,1.32-0.19,1.81,0.66,2.43c6.37,4.65,13.41,8.06,21.16,9.21
		c6.99,1.03,13.61-0.58,18.97-5.8c7.32-7.15,12.1-15.74,15.03-25.47c0.38-1.27,1.03-2.47,1.56-3.7c0.19,0.03,0.38,0.06,0.57,0.09
		c-0.4,2.28-0.6,4.61-1.22,6.83c-2.34,8.38-4.95,16.74-10.95,23.3c-7.81,8.54-17.59,11.09-28.75,8.06
		c-5.84-1.58-11.25-4.15-16.3-7.5c-2.95-1.96-3.44-1.68-4.79,1.48c-3.67,8.6-7.13,17.42-13.32,24.55
		c-4.46,5.14-9.65,9.69-17.39,8.97c-4.68-0.43-8.27-2.53-10.58-6.57c-2.18-3.81-1.47-7.49,0.62-11.23
		c4.13-7.39,10.31-12.4,17.91-15.63c4.44-1.88,9.16-3.1,13.79-4.5c0.71-0.21,1.6,0.21,2.41,0.34c0.01,0.21,0.03,0.42,0.04,0.63
		c-0.48,0.29-0.93,0.68-1.45,0.86c-3.73,1.28-7.6,2.23-11.19,3.84c-4.2,1.88-7.84,4.76-10.73,8.39c-1.53,1.92-2.73,4.11-4.08,6.18
		c-2.46,3.75,0.7,9.83,5.92,9.81c5.92-0.02,9.96-2.89,13.56-7.12c5.57-6.52,8.74-14.39,12.55-21.9c0.66-1.3,0.62-2.2-0.84-2.99
		c-6.74-3.62-13.77-6.09-21.54-5.88C59.14,59,48.53,66.7,45.13,77.85c-3.8,12.46-1.21,23.89,6.56,34.18
		c6.06,8.03,13.66,14.59,20.98,21.4c7.35,6.84,12.91,14.85,16.28,24.41c2.73,7.74,3.81,15.66,3.67,23.8
		c-0.03,1.66-0.28,3.31-0.43,4.96C92.12,186.6,92.05,186.61,91.98,186.63z"/>
	<path class="st0" d="M57.94,139.78c-6.09-4.1-12.3-8.03-18.22-12.36c-4.35-3.18-8.42-6.76-12.4-10.41
		c-5.67-5.21-10.52-11.09-14.35-17.85C9.92,93.78,7.8,88.03,6.9,82.09c-0.79-5.21-0.93-10.75,0.87-15.94
		c1.47-4.23,3.22-8.36,4.85-12.53c1.11-2.85,0.9-3.35-1.92-5.06c-1.67-1.01-3.3-2.1-5.21-3.33c1.13-1.57,2.02-2.97,3.1-4.2
		c0.31-0.36,1.38-0.52,1.76-0.27c4.58,3.11,9.1,6.32,13.82,9.62C19.4,56.02,16.63,62.36,14.95,69c-1.5,5.97-1.87,12.18-0.32,18.37
		c2.29,9.14,7.01,16.96,12.76,24.21c2.23,2.81,4.8,5.42,7.52,7.76c7.62,6.55,15.4,12.92,23.11,19.36c0.16,0.14,0.25,0.36,0.37,0.55
		C58.24,139.43,58.09,139.61,57.94,139.78z"/>
	<path class="st0" d="M35.22,57.42c-7.3,8.5-11.26,17.71-10.43,28.6c0.45,5.86,2.46,11.21,5.17,16.42
		c3.85,7.4,9.04,13.71,14.98,19.45c3.68,3.56,7.48,7,11.23,10.48c0.78,0.72,1.57,1.42,2.36,2.13c-0.13,0.17-0.25,0.34-0.38,0.51
		c-2.05-1.44-4.18-2.78-6.12-4.35c-5.2-4.22-10.52-8.33-15.4-12.89c-8.05-7.52-14.5-16.21-17.59-27.01
		c-1.71-5.98-1.85-12.07-0.77-18.14c1.22-6.88,3.83-13.24,7.72-19.08c0.96-1.44,1.62-1.29,2.85-0.36
		C30.82,54.66,32.96,55.93,35.22,57.42z"/>
	<path class="st0" d="M62.7,134.03c-2.06-1.62-4.29-3.07-6.15-4.9c-5.79-5.69-11.76-11.24-17.07-17.36
		c-5.63-6.49-9.63-14.13-10.95-22.72c-0.99-6.42,0.1-12.78,3-18.73c0.71-1.46,1.43-1.77,2.77-0.74c1.07,0.82,2.41,1.31,3.41,2.2
		c0.47,0.42,0.81,1.62,0.55,2.14c-3.22,6.59-4.18,13.32-2.57,20.59c1.21,5.47,3.24,10.44,6.47,14.94
		c3.31,4.61,6.53,9.32,10.19,13.65c2.78,3.28,6.18,6.03,9.3,9.02c0.49,0.47,0.94,1,1.4,1.5C62.93,133.75,62.82,133.89,62.7,134.03z"
		/>
	<path class="st0" d="M136.06,52.53c2.35,1.6,4.28,2.92,6.46,4.41c-1.46,2.24-2.84,4.34-4.29,6.56c-2.28-1.53-4.39-2.94-6.66-4.46
		C133.1,56.81,134.55,54.72,136.06,52.53z"/>
	<path class="st0" d="M143.64,55.32c-2.32-1.56-4.39-2.97-6.61-4.46c1.45-2.19,2.82-4.25,4.29-6.48c2.18,1.46,4.23,2.84,6.45,4.33
		C146.35,50.98,145.05,53.07,143.64,55.32z"/>
	<path class="st0" d="M148.65,47.22c-2.32-1.56-4.39-2.97-6.61-4.46c1.45-2.19,2.82-4.25,4.29-6.48c2.18,1.46,4.23,2.84,6.45,4.33
		C151.36,42.88,150.05,44.98,148.65,47.22z"/>
	<path class="st0" d="M44.63,64.33c-1.2,1.73-2.3,3.44-3.56,5.02c-0.31,0.4-1.33,0.7-1.72,0.49c-1.91-1.04-3.72-2.26-5.62-3.45
		c1.12-1.77,2.07-3.29,3.04-4.82c0.82-1.3,1.86-1.43,3.08-0.57C41.4,62.09,42.95,63.16,44.63,64.33z"/>
</g>
<path class="st1" d="M77.9,132.13l3.44-1.73c2.42,3.74,5.22,5.6,8.39,5.6c1.36,0,2.63-0.27,3.82-0.8c1.19-0.53,2.1-1.24,2.72-2.13
	c0.62-0.89,0.94-1.84,0.94-2.84c0-1.14-0.46-2.25-1.38-3.34c-1.27-1.51-3.58-3.32-6.93-5.44c-3.37-2.14-5.47-3.68-6.3-4.64
	c-1.43-1.6-2.15-3.33-2.15-5.19c0-1.48,0.42-2.82,1.27-4.04c0.84-1.21,2.03-2.17,3.56-2.87c1.53-0.7,3.19-1.05,4.99-1.05
	c1.91,0,3.69,0.4,5.35,1.19c1.66,0.79,3.41,2.25,5.27,4.37l-3.3,2.1c-1.52-1.69-2.82-2.81-3.89-3.34c-1.07-0.54-2.24-0.81-3.51-0.81
	c-1.63,0-2.97,0.42-4,1.25c-1.04,0.83-1.55,1.85-1.55,3.07c0,0.74,0.18,1.45,0.55,2.15c0.37,0.69,1.04,1.45,2.01,2.26
	c0.53,0.43,2.27,1.56,5.23,3.39c3.5,2.17,5.9,4.1,7.21,5.79c1.3,1.69,1.95,3.39,1.95,5.1c0,2.46-1.11,4.6-3.34,6.41
	c-2.23,1.81-4.94,2.72-8.13,2.72c-2.46,0-4.68-0.55-6.68-1.65C81.43,136.55,79.59,134.71,77.9,132.13z"/>
<path class="st1" d="M111.71,104.52h4.04v14.23h20.6v-14.23h4.04v33.93h-4.04v-16.38h-20.6v16.38h-4.04V104.52z"/>
<polygon class="st1" points="168.4,112.73 174.67,124.01 174.79,124.01 167.89,111.73 160.96,124.01 161.06,124.01 167.41,112.73 
	"/>
<polygon class="st1" points="167.89,111.73 182.9,138.45 187.27,138.45 168.4,104.52 167.41,104.52 148.3,138.45 152.81,138.45 "/>
<polygon class="st1" points="359.53,111.54 374.54,138.26 378.9,138.26 360.04,104.33 359.05,104.33 339.94,138.26 344.45,138.26 
	"/>
<polygon class="st1" points="284.91,111.73 299.92,138.45 304.29,138.45 285.42,104.52 284.43,104.52 265.32,138.45 269.83,138.45 
	"/>
<path class="st1" d="M195.12,104.52h4.04v14.23h20.6v-14.23h4.04v33.93h-4.04v-16.38h-20.6v16.38h-4.04V104.52z"/>
<path class="st1" d="M235.5,104.52h8.06c4.49,0,7.54,0.15,9.13,0.46c2.4,0.46,4.35,1.45,5.86,2.97c1.5,1.52,2.26,3.38,2.26,5.6
	c0,1.85-0.52,3.47-1.55,4.87c-1.04,1.4-2.52,2.46-4.44,3.18c-1.93,0.72-4.58,1.08-7.98,1.1l14.55,15.75h-5l-14.55-15.75h-2.29v15.75
	h-4.04V104.52z M239.54,107.84v11.53l6.97,0.05c2.7,0,4.7-0.22,5.99-0.65c1.29-0.43,2.3-1.12,3.03-2.06c0.73-0.95,1.09-2,1.09-3.17
	c0-1.14-0.37-2.17-1.1-3.1c-0.73-0.93-1.7-1.6-2.89-2c-1.19-0.4-3.18-0.6-5.95-0.6H239.54z"/>
<path class="st1" d="M312.82,107.79v-3.28h21.34l-16.9,30.61h16.05v3.32h-22.3l17.05-30.65H312.82z"/>
<path class="st2" d="M388.45,143.91c-0.01,1.48-1.3,2.74-2.75,2.69c-1.37-0.05-2.57-1.28-2.58-2.66c-0.01-1.48,1.24-2.68,2.76-2.64
	C387.32,141.33,388.47,142.5,388.45,143.91z"/>
<path class="st2" d="M401.11,143.92c0,1.5-1.25,2.73-2.73,2.68c-1.35-0.04-2.57-1.29-2.59-2.66c-0.02-1.44,1.29-2.69,2.76-2.65
	C399.98,141.35,401.11,142.51,401.11,143.92z"/>
<path class="st2" d="M414.39,121.23c0,3.53-0.82,6.64-2.46,9.33c-1.64,2.69-3.76,4.67-6.38,5.95c-2.61,1.28-6.28,1.92-10.99,1.92
	h-12.03v-3.33h7.99c5.23,0,8.85-0.3,10.87-0.91c2.84-0.86,5.08-2.42,6.71-4.66c1.63-2.24,2.44-4.99,2.44-8.23
	c0-3.4-0.88-6.31-2.65-8.72c-1.77-2.41-4.22-4.06-7.38-4.96c-2.37-0.67-6.26-1.01-11.7-1.01h-2.67v13.54h14.81v3.62h-18.46v-3.62
	h0.03v-16.99h7.84c5.66,0,9.76,0.42,12.31,1.27c3.67,1.2,6.53,3.28,8.6,6.23C413.36,113.61,414.39,117.14,414.39,121.23z"/>
</svg>
